# xmcd CD database file generated by OrangeCD 4.3
#
# Track frame offsets:
#	182
#	13282
#	25255
#	36677
#	49430
#	59402
#	71377
#	81872
#	90937
#	103957
#	115777
#	127995
#	142087
#	152190
#	163147
#	173020
#	184017
#	195767
#	206747
#	217785
#	229647
#	238962
#	251632
#	264467
#	276175
#
# Disc length: 3831 seconds
#
# Revision: 0
# Processed by: cddbd v1.4PL0 Copyright (c) Steve Scherf et al.
# Submitted via: OrangeCD 4.3
#
DISCID=6b0ef519
DTITLE=Various Artist - Street Corner Essentials Disc 2
DYEAR=2001
DGENRE=Blues
TTITLE0=Blue Jays - White Cliffs Of Dover
TTITLE1=Eagles - Tryin' To Get To You
TTITLE2=Barons - My Baby's Gone
TTITLE3=Five Notes - Show Me The Way
TTITLE4=Four Tops - Woke Up This Morning
TTITLE5=Jimmy Castor and The Juniors - I Promise To Remember
TTITLE6=Sentimentals - I Want To Love You
TTITLE7=Orbits - Sugar Mama
TTITLE8=Dream Kings - M.T.Y.L.T.T
TTITLE9=Norman Fox and The Rob Roys - Dance, Girl, Dance
TTITLE10=Tornados - Tht's The Way I Feel
TTITLE11=Quintones - Ding Dong
TTITLE12=Bay Bops - Joanie
TTITLE13=Lee Scott and The Windsors - My Gloria
TTITLE14=Hi-Fives - Dorothy
TTITLE15=Five Satins - Your Memory
TTITLE16=Explorers - Don't Be A Fool
TTITLE17=Dubs - If I Only Had Magic
TTITLE18=Emotions - Echo
TTITLE19=Dubs - Two Hearts Are Better Than One
TTITLE20=Standards - My Heart Belongs To Only You
TTITLE21=Crests - You Blew Out The Candles
TTITLE22=Chateaus - Honest I Will
TTITLE23=Four-Evers - Be My Girl (Please Be Mine)
TTITLE24=Ocapellos - The Stars
EXTD=
EXTT0=
EXTT1=
EXTT2=
EXTT3=
EXTT4=
EXTT5=
EXTT6=
EXTT7=
EXTT8=
EXTT9=
EXTT10=
EXTT11=
EXTT12=
EXTT13=
EXTT14=
EXTT15=
EXTT16=
EXTT17=
EXTT18=
EXTT19=
EXTT20=
EXTT21=
EXTT22=
EXTT23=
EXTT24=
PLAYORDER=
